<svg width="1414" height="148" viewBox="0 0 1414 148" fill="none" xmlns="http://www.w3.org/2000/svg">
<path d="M84.8627 117.589H0.000933778V-8.77011e-06H83.2181V15.6238H18.0916V49.0093H75.1595V64.6331H18.0916V101.966H84.8627V117.589ZM107.581 117.589H88.8329L120.409 74.6652L91.6287 33.7144H110.048L130.113 63.6463H130.441L150.177 33.7144H168.596L139.816 74.6652L171.721 117.589H152.808L130.113 85.5196H129.784L107.581 117.589ZM210.255 105.255C213.051 105.255 214.367 105.09 217.162 104.597V117.589C213.051 118.412 210.419 118.576 206.966 118.576C193.151 118.576 184.764 113.313 184.764 93.9071V47.0358H172.594V33.7144H184.764V6.74288H200.881V33.7144H216.998V47.0358H200.881V94.4005C200.881 103.281 203.348 105.255 210.255 105.255ZM269.386 31.7409C272.347 31.7409 274.649 31.9054 277.116 32.2343V47.6936C275.143 47.3647 273.662 47.2002 271.689 47.2002C257.052 47.2002 246.526 58.2191 246.526 74.1718V117.589H230.409V33.7144H246.526V49.6671H246.855C251.296 39.1417 258.039 31.7409 269.386 31.7409ZM307.883 119.892C291.108 119.892 280.418 110.189 280.418 95.8806C280.418 77.1321 294.562 71.5404 315.448 67.5934C328.605 65.1265 336.664 63.4818 336.664 55.2588C336.664 49.1738 333.046 44.0755 320.711 44.0755C306.074 44.0755 301.634 48.6804 300.811 59.8637H284.365C285.187 43.7466 295.713 31.0831 321.369 31.0831C338.637 31.0831 352.452 38.3194 352.452 60.0282V98.512C352.452 104.597 353.274 107.722 356.399 107.722C356.892 107.722 357.386 107.722 358.373 107.557V117.425C355.577 118.083 352.781 118.412 350.149 118.412C342.091 118.412 337.815 115.287 336.828 105.748H336.499C331.072 114.465 321.533 119.892 307.883 119.892ZM311.501 106.899C325.974 106.899 336.664 99.4988 336.664 84.8618V72.8561C334.032 75.323 326.796 77.1321 318.244 78.9412C303.443 81.9015 297.193 86.013 297.193 94.7294C297.193 102.624 301.469 106.899 311.501 106.899ZM408.758 120.056C382.609 120.056 366.82 101.966 366.82 75.6519C366.82 49.5027 382.609 31.0831 408.922 31.0831C434.907 31.0831 450.695 49.3382 450.695 75.4875C450.695 101.801 434.907 120.056 408.758 120.056ZM408.922 106.735C426.026 106.735 433.92 93.0848 433.92 75.6519C433.92 58.0546 426.026 44.5689 408.922 44.5689C391.49 44.5689 383.595 58.0546 383.595 75.6519C383.595 93.0848 391.49 106.735 408.922 106.735ZM503.39 31.7409C506.35 31.7409 508.652 31.9054 511.119 32.2343V47.6936C509.146 47.3647 507.666 47.2002 505.692 47.2002C491.055 47.2002 480.53 58.2191 480.53 74.1718V117.589H464.412V33.7144H480.53V49.6671H480.859C485.299 39.1417 492.042 31.7409 503.39 31.7409ZM577.911 43.911V-8.77011e-06H594.028V117.589H577.911V107.722H577.582C572.977 113.642 564.919 119.892 551.762 119.892C530.382 119.892 514.1 103.281 514.1 75.6519C514.1 48.0225 530.382 31.2475 551.762 31.2475C564.919 31.2475 572.977 37.3326 577.582 43.911H577.911ZM554.393 106.571C568.866 106.571 577.746 94.5649 577.746 75.6519C577.746 56.5745 568.866 44.7333 554.393 44.7333C538.605 44.7333 530.875 59.2059 530.875 75.6519C530.875 92.098 538.605 106.571 554.393 106.571ZM629.439 18.7485H611.183V1.31568H629.439V18.7485ZM628.287 117.589H612.17V33.7144H628.287V117.589ZM690.455 31.2475C705.914 31.2475 718.413 40.1284 718.413 59.3703V117.589H702.296V63.8108C702.296 52.6274 697.362 45.0622 685.192 45.0622C671.377 45.0622 662.496 53.4497 662.496 66.1132V117.589H646.379V33.7144H662.496V44.2399H662.825C667.266 37.826 675.982 31.2475 690.455 31.2475ZM759.026 119.892C742.251 119.892 731.561 110.189 731.561 95.8806C731.561 77.1321 745.705 71.5404 766.591 67.5934C779.748 65.1265 787.807 63.4818 787.807 55.2588C787.807 49.1738 784.188 44.0755 771.854 44.0755C757.217 44.0755 752.776 48.6804 751.954 59.8637H735.508C736.33 43.7466 746.856 31.0831 772.512 31.0831C789.78 31.0831 803.595 38.3194 803.595 60.0282V98.512C803.595 104.597 804.417 107.722 807.542 107.722C808.035 107.722 808.529 107.722 809.515 107.557V117.425C806.72 118.083 803.924 118.412 801.292 118.412C793.234 118.412 788.958 115.287 787.971 105.748H787.642C782.215 114.465 772.676 119.892 759.026 119.892ZM762.644 106.899C777.117 106.899 787.807 99.4988 787.807 84.8618V72.8561C785.175 75.323 777.939 77.1321 769.387 78.9412C754.585 81.9015 748.336 86.013 748.336 94.7294C748.336 102.624 752.612 106.899 762.644 106.899ZM862.184 31.7409C865.144 31.7409 867.447 31.9054 869.914 32.2343V47.6936C867.94 47.3647 866.46 47.2002 864.486 47.2002C849.849 47.2002 839.324 58.2191 839.324 74.1718V117.589H823.207V33.7144H839.324V49.6671H839.653C844.093 39.1417 850.836 31.7409 862.184 31.7409ZM891.558 147.028C887.94 147.028 885.473 146.699 881.197 145.877V132.72C883.993 133.049 885.473 133.213 888.105 133.213C894.518 133.213 902.084 129.924 905.373 116.767L871.494 33.7144H889.091L913.596 97.8542H913.925L936.949 33.7144H953.889L920.668 119.563C912.609 140.285 904.551 147.028 891.558 147.028ZM999.642 117.589H980.565L1024.31 -8.77011e-06H1043.88L1087.96 117.589H1068.22L1058.52 89.3022H1009.35L999.642 117.589ZM1033.85 16.775L1014.77 74.0073H1053.42L1034.18 16.775H1033.85ZM1113.64 117.589H1097.52V-8.77011e-06H1113.64V117.589ZM1149 18.7485H1130.74V1.31568H1149V18.7485ZM1147.85 117.589H1131.73V33.7144H1147.85V117.589ZM1242.91 73.8429C1242.91 76.1453 1242.91 78.6122 1242.74 79.9279H1178.27C1178.6 93.9071 1186.83 106.899 1203.44 106.899C1218.24 106.899 1224 97.3608 1225.48 91.7691H1241.92C1237.48 107.886 1225.15 120.056 1203.11 120.056C1176.47 120.056 1161.66 101.143 1161.66 75.4875C1161.66 49.1738 1177.45 31.0831 1203.11 31.0831C1228.6 31.0831 1242.91 47.8581 1242.91 73.8429ZM1178.27 67.2644H1226.13C1226.13 54.1076 1216.92 44.2399 1202.62 44.2399C1189.13 44.2399 1179.26 53.4497 1178.27 67.2644ZM1300.6 31.2475C1316.06 31.2475 1328.56 40.1284 1328.56 59.3703V117.589H1312.44V63.8108C1312.44 52.6274 1307.51 45.0622 1295.34 45.0622C1281.52 45.0622 1272.64 53.4497 1272.64 66.1132V117.589H1256.52V33.7144H1272.64V44.2399H1272.97C1277.41 37.826 1286.13 31.2475 1300.6 31.2475ZM1379.04 119.892C1353.55 119.892 1340.88 106.735 1340.39 89.6311H1356.67C1357.33 99.3343 1363.25 106.899 1378.87 106.899C1393.02 106.899 1396.8 100.65 1396.8 94.5649C1396.8 84.0394 1385.62 82.8882 1374.76 80.5858C1360.12 77.1321 1343.35 72.8561 1343.35 55.4233C1343.35 40.9507 1355.03 31.2475 1375.25 31.2475C1398.28 31.2475 1409.3 43.5821 1410.45 58.0546H1394.17C1393.02 51.6407 1389.56 44.2399 1375.58 44.2399C1364.73 44.2399 1360.12 48.5159 1360.12 54.7654C1360.12 63.4818 1369.5 64.3042 1381.34 66.9355C1396.8 70.5537 1413.57 74.9941 1413.57 93.7426C1413.57 110.024 1401.07 119.892 1379.04 119.892Z" fill="#474747"/>
</svg>
